<svg id="visual" viewBox="0 0 1080 200" width="1080" height="200" xmlns="http://www.w3.org/2000/svg" xmlns:xlink="http://www.w3.org/1999/xlink" version="1.1"><rect x="0" y="0" width="1080" height="200" fill="#fff"></rect><path d="M0 67L90 80L180 93L270 74L360 92L450 79L540 82L630 64L720 78L810 72L900 74L990 66L1080 71L1080 201L990 201L900 201L810 201L720 201L630 201L540 201L450 201L360 201L270 201L180 201L90 201L0 201Z" fill="#808080"></path><path d="M0 90L90 93L180 103L270 90L360 106L450 98L540 98L630 111L720 95L810 105L900 108L990 110L1080 106L1080 201L990 201L900 201L810 201L720 201L630 201L540 201L450 201L360 201L270 201L180 201L90 201L0 201Z" fill="#5f5f5f"></path><path d="M0 113L90 124L180 114L270 124L360 129L450 133L540 116L630 126L720 114L810 130L900 133L990 125L1080 123L1080 201L990 201L900 201L810 201L720 201L630 201L540 201L450 201L360 201L270 201L180 201L90 201L0 201Z" fill="#3f3f3f"></path><path d="M0 136L90 141L180 136L270 142L360 152L450 151L540 147L630 145L720 141L810 140L900 149L990 136L1080 146L1080 201L990 201L900 201L810 201L720 201L630 201L540 201L450 201L360 201L270 201L180 201L90 201L0 201Z" fill="#222222"></path><path d="M0 171L90 162L180 167L270 171L360 170L450 160L540 162L630 166L720 165L810 167L900 167L990 160L1080 168L1080 201L990 201L900 201L810 201L720 201L630 201L540 201L450 201L360 201L270 201L180 201L90 201L0 201Z" fill="#000000"></path></svg>